<svg xmlns="http://www.w3.org/2000/svg" viewBox="0 0 750 500"><g id="freepik--background-complete--inject-43"><rect x="91.52" y="428.65" width="142.8" height="15.31" style="fill:#e0e0e0"></rect><rect x="321.26" y="428.65" width="142.8" height="15.31" style="fill:#e0e0e0"></rect><rect x="536.76" y="428.65" width="142.8" height="15.31" style="fill:#e0e0e0"></rect><path d="M270.41,266.58c-15.07-3.78-28.24-13.31-35.56-25.73a47.87,47.87,0,0,1-3.73-40.9c3.88-10.4,11.37-19.55,14.58-30.14,3.64-12,1.47-24.76-.78-37.05s-4.54-25-1.12-37.06,14.16-23.4,28-24.26c12.83-.79,24.67,7.74,30,18.25s5.38,22.54,4.13,34-3.68,23-2.92,34.5c1.55,23.34,16.1,45.32,14.39,68.65-.89,12.15-6.12,19.92-15.08,29.06-7.72,7.88-20.56,13.06-31.93,10.64" style="fill:#ebebeb"></path><path d="M275,382.24c-.14,0-.24-51.71-.24-115.48s.1-115.49.24-115.49.24,51.7.24,115.49S275.08,382.24,275,382.24Z" style="fill:#e0e0e0"></path><path d="M274.25,226.23a18,18,0,0,1-2.21-1.88c-1.32-1.2-3.12-2.9-5-4.84s-3.63-3.66-4.89-4.92a16.94,16.94,0,0,1-2-2.09,19.26,19.26,0,0,1,2.21,1.88c1.32,1.2,3.12,2.9,5,4.84s3.63,3.66,4.89,4.92A18.88,18.88,0,0,1,274.25,226.23Z" style="fill:#e0e0e0"></path><rect x="235.48" y="372.65" width="80.29" height="9.44" style="fill:#e0e0e0"></rect><path d="M275.7,177.85a16.77,16.77,0,0,0,4.91-2,13.3,13.3,0,0,0,3.93-3.81,12.38,12.38,0,0,0,2.14-6c0-.08,0-.15,0-.21l.28.23a10.65,10.65,0,0,0-5.91,3.12,21.77,21.77,0,0,0-3.3,4.26c-.79,1.3-1.34,2.4-1.72,3.15a8.08,8.08,0,0,1-.61,1.18,6.16,6.16,0,0,1,.44-1.24,28.7,28.7,0,0,1,1.59-3.24,20.92,20.92,0,0,1,3.27-4.38,11,11,0,0,1,6.17-3.29l.3,0,0,.27,0,.21a12.5,12.5,0,0,1-2.24,6.22,13,13,0,0,1-4.12,3.85,12.4,12.4,0,0,1-3.65,1.49,7.42,7.42,0,0,1-1.07.19C275.84,177.86,275.71,177.87,275.7,177.85Z" style="fill:#e0e0e0"></path><path d="M275.7,177.85a29.82,29.82,0,0,1,3.37-4,32.47,32.47,0,0,1,3.73-3.75,28.76,28.76,0,0,1-3.36,4A30.57,30.57,0,0,1,275.7,177.85Z" style="fill:#e0e0e0"></path><path d="M506.33,272c-16.44-3.6-30.82-12.69-38.81-24.53s-9.51-26.27-4.07-39c4.23-9.91,12.41-18.64,15.91-28.72,4-11.46,1.61-23.6-.85-35.31s-4.95-23.82-1.23-35.33A34.66,34.66,0,0,1,507.84,86c14-.76,26.93,7.38,32.77,17.39s5.88,21.49,4.52,32.44-4,21.9-3.19,32.89c1.69,22.25,17.58,43.19,15.71,65.42-1,11.58-6.69,19-16.46,27.7-8.43,7.51-22.44,12.45-34.86,10.14" style="fill:#ebebeb"></path><path d="M511.29,382.24c-.15,0-.27-49.28-.27-110.06s.12-110.06.27-110.06.26,49.27.26,110.06S511.43,382.24,511.29,382.24Z" style="fill:#e0e0e0"></path><path d="M510.53,233.56a19.69,19.69,0,0,1-2.42-1.79c-1.44-1.15-3.4-2.77-5.46-4.62s-4-3.49-5.34-4.69a18.59,18.59,0,0,1-2.15-2,19.69,19.69,0,0,1,2.42,1.79c1.44,1.15,3.4,2.77,5.47,4.62s4,3.49,5.33,4.68A19.1,19.1,0,0,1,510.53,233.56Z" style="fill:#e0e0e0"></path><rect x="468.21" y="373.1" width="87.64" height="8.99" style="fill:#e0e0e0"></rect><path d="M512.11,187.45a20.83,20.83,0,0,0,5.35-1.87,13.9,13.9,0,0,0,4.3-3.63,10.93,10.93,0,0,0,2.33-5.75l0-.2.31.22a12.12,12.12,0,0,0-6.45,3,20.92,20.92,0,0,0-3.6,4.05c-.86,1.24-1.47,2.29-1.88,3a7.75,7.75,0,0,1-.67,1.12,5.66,5.66,0,0,1,.48-1.18,25.19,25.19,0,0,1,1.74-3.09,19.94,19.94,0,0,1,3.57-4.17,12.57,12.57,0,0,1,6.73-3.14l.33,0,0,.26,0,.2a11.06,11.06,0,0,1-2.45,5.93,13.91,13.91,0,0,1-4.5,3.67,15.47,15.47,0,0,1-4,1.42,10.36,10.36,0,0,1-1.17.18A2.11,2.11,0,0,1,512.11,187.45Z" style="fill:#e0e0e0"></path><path d="M512.11,187.45a28.84,28.84,0,0,1,3.67-3.83,30.82,30.82,0,0,1,4.08-3.57,29.47,29.47,0,0,1-3.67,3.83A32.72,32.72,0,0,1,512.11,187.45Z" style="fill:#e0e0e0"></path><circle cx="639.82" cy="82.64" r="22.45" transform="matrix(0.19, -0.98, 0.98, 0.19, 438.16, 695.45)" style="fill:#ebebeb"></circle><path d="M636.63,132.84a90.46,90.46,0,0,1-.24-9.26,90.3,90.3,0,0,1,.24-9.26,92.23,92.23,0,0,1,.23,9.26A92.39,92.39,0,0,1,636.63,132.84Z" style="fill:#e0e0e0"></path><path d="M623.69,109.1c.11.06-2,3.93-4.71,8.64s-5,8.46-5.13,8.4,2-3.93,4.72-8.64S623.58,109,623.69,109.1Z" style="fill:#e0e0e0"></path><path d="M610.42,100.83a50.07,50.07,0,0,1-5.25,4.47,49.89,49.89,0,0,1-5.53,4.1,49.4,49.4,0,0,1,5.24-4.47A51,51,0,0,1,610.42,100.83Z" style="fill:#e0e0e0"></path><path d="M659,123.71a12.27,12.27,0,0,1-.59-2.27c-.32-1.42-.78-3.36-1.35-5.5s-1.16-4-1.59-5.43a13.79,13.79,0,0,1-.63-2.27,10.24,10.24,0,0,1,.95,2.16c.51,1.36,1.14,3.27,1.72,5.42s1,4.12,1.23,5.55A10.39,10.39,0,0,1,659,123.71Z" style="fill:#e0e0e0"></path><path d="M681.79,107.56a76.42,76.42,0,0,1-6.63-5.49,80.54,80.54,0,0,1-6.33-5.84,77.36,77.36,0,0,1,6.64,5.49A75.11,75.11,0,0,1,681.79,107.56Z" style="fill:#e0e0e0"></path><path d="M690.51,85.36A21.8,21.8,0,0,1,687.8,85c-1.66-.28-4-.64-6.51-.93s-4.88-.47-6.56-.57a18.19,18.19,0,0,1-2.72-.24,13.9,13.9,0,0,1,2.74-.1c1.69,0,4,.15,6.59.44s4.87.71,6.53,1.07A13.11,13.11,0,0,1,690.51,85.36Z" style="fill:#e0e0e0"></path><path d="M690.54,63.52c0,.13-4.83,1.42-10.85,2.89s-10.94,2.55-11,2.43,4.83-1.42,10.85-2.89S690.51,63.4,690.54,63.52Z" style="fill:#e0e0e0"></path><path d="M665.17,38.08c.11.08-2.21,3.78-5.19,8.29s-5.48,8.09-5.59,8,2.22-3.78,5.2-8.28S665.06,38,665.17,38.08Z" style="fill:#e0e0e0"></path><path d="M640,32.77a21,21,0,0,1,0,3.08c0,1.9-.06,4.53-.06,7.43s0,5.52.08,7.42a21,21,0,0,1,0,3.08,18.35,18.35,0,0,1-.3-3.07c-.12-1.9-.22-4.53-.22-7.43s.09-5.54.2-7.44A18.54,18.54,0,0,1,640,32.77Z" style="fill:#e0e0e0"></path><path d="M620.94,56.51a96.38,96.38,0,0,1-5.28-8.19c-2.81-4.59-5-8.36-4.88-8.43s2.47,3.6,5.28,8.19S621.05,56.44,620.94,56.51Z" style="fill:#e0e0e0"></path><path d="M609.55,66.19a11.11,11.11,0,0,1-2.39-.38c-1.46-.3-3.46-.79-5.64-1.44s-4.14-1.32-5.53-1.85a11.6,11.6,0,0,1-2.21-1,13.92,13.92,0,0,1,2.32.66c1.42.46,3.37,1.08,5.55,1.72s4.15,1.18,5.59,1.57A15.11,15.11,0,0,1,609.55,66.19Z" style="fill:#e0e0e0"></path><path d="M604.57,83.44a55.29,55.29,0,0,1-7.16.92,54.12,54.12,0,0,1-7.21.46,56.6,56.6,0,0,1,7.16-.93A55,55,0,0,1,604.57,83.44Z" style="fill:#e0e0e0"></path><path d="M199.52,70.83c.44-3.16-4-5.75-7.37-6-1.59-.13-3.25.11-4.76-.42-3.28-1.14-4.59-5.37-7.79-6.72-2.39-1-5.14-.11-7.46,1.06s-4.6,2.63-7.19,2.8c-2.26.14-4.7-.7-6.67.4-1.47.82-2.24,2.52-3.59,3.51a8.56,8.56,0,0,1-4.7,1.28,13.07,13.07,0,0,0-4.83.79c-1.5.68-2.74,2.26-2.43,3.88Z" style="fill:#ebebeb"></path><path d="M647,179c.43-3.16-4-5.76-7.37-6-1.6-.13-3.26.12-4.77-.41-3.28-1.14-4.58-5.38-7.78-6.72-2.39-1-5.14-.11-7.46,1.05s-4.61,2.64-7.2,2.8c-2.25.15-4.7-.69-6.67.41-1.46.82-2.23,2.51-3.59,3.51a8.52,8.52,0,0,1-4.69,1.27,13.37,13.37,0,0,0-4.84.79c-1.49.69-2.73,2.27-2.42,3.89Z" style="fill:#ebebeb"></path><path d="M171.07,121.55c.75-5.44-6.93-9.92-12.7-10.38-2.76-.23-5.61.2-8.22-.71-5.65-2-7.91-9.27-13.42-11.59-4.12-1.74-8.86-.19-12.86,1.82s-7.94,4.54-12.4,4.82c-3.88.25-8.1-1.19-11.5.71-2.53,1.41-3.85,4.33-6.19,6s-5.25,2-8.09,2.19-5.76.18-8.34,1.36-4.71,3.91-4.17,6.7Z" style="fill:#f5f5f5"></path><path d="M435.25,106.37c.65-4.73-6-8.63-11.05-9-2.39-.19-4.88.17-7.15-.62-4.91-1.71-6.87-8.06-11.67-10.08-3.58-1.51-7.71-.17-11.18,1.58s-6.91,4-10.8,4.2c-3.37.22-7-1-10,.61-2.21,1.23-3.36,3.77-5.39,5.27s-4.57,1.77-7,1.91-5,.15-7.25,1.18-4.1,3.4-3.64,5.82Z" style="fill:#f5f5f5"></path></g><g id="freepik--Floor--inject-43"><path d="M732,384.24c0,.14-160.05.26-357.43.26s-357.46-.12-357.46-.26,160-.26,357.46-.26S732,384.09,732,384.24Z" style="fill:#263238"></path><polygon points="86.49 384.24 70.6 384.24 72.68 376.52 86.49 376.52 86.49 384.24" style="fill:#e0e0e0"></polygon><path d="M86.49,384.24a3.74,3.74,0,0,1,0-.58l0-1.56-.1-5.58.19.2-13.81.06.25-.19-.3,1.14c-.63,2.3-1.23,4.52-1.79,6.57L70.6,384c4.56,0,8.5.07,11.32.12l3.33.07a10.84,10.84,0,0,1,1.24.06,7.58,7.58,0,0,1-1.13.06l-3.27.07c-2.81.05-6.82.1-11.49.12h-.32l.08-.32,1.76-6.58.31-1.14,0-.19h.2l13.81.07h.2v.19c0,2.43-.07,4.38-.11,5.7l0,1.52A1.63,1.63,0,0,1,86.49,384.24Z" style="fill:#263238"></path><polygon points="713.18 384.24 697.29 384.24 699.37 376.52 713.18 376.52 713.18 384.24" style="fill:#e0e0e0"></polygon><path d="M713.18,384.24a3.74,3.74,0,0,1,0-.58c0-.42,0-.93,0-1.56,0-1.4-.06-3.29-.1-5.58l.19.2-13.81.06.25-.19c-.1.36-.2.75-.3,1.14-.63,2.3-1.23,4.52-1.79,6.57l-.24-.31c4.56,0,8.5.07,11.32.12l3.33.07a11.06,11.06,0,0,1,1.24.06,7.58,7.58,0,0,1-1.13.06l-3.27.07c-2.81.05-6.82.1-11.49.12H697l.08-.32,1.76-6.58c.11-.39.21-.78.31-1.14l0-.19h.2l13.81.07h.2v.19c0,2.43-.07,4.38-.11,5.7,0,.61,0,1.11,0,1.52A2.2,2.2,0,0,1,713.18,384.24Z" style="fill:#263238"></path><polygon points="295 376.52 285.56 376.52 281.19 376.52 271.75 376.52 269.67 384.24 281.19 384.24 285.56 384.24 297.08 384.24 295 376.52" style="fill:#e0e0e0"></polygon><path d="M295,376.52a3.91,3.91,0,0,1,.17.49l.44,1.49c.4,1.38.95,3.3,1.63,5.69l.06.21h-.22c-6,0-15.13.09-25.32.09h-2.43l.09-.33c.73-2.69,1.44-5.29,2.09-7.71l.05-.19h.19l16.72.1,4.84.08,1.27,0a2.11,2.11,0,0,1,.42,0l-.47,0-1.31,0-4.81.08-16.66.1.24-.18c-.65,2.42-1.34,5-2.07,7.71l-.25-.32h2.09c10.19,0,19.32,0,25.32.09l-.16.21c-.61-2.37-1.09-4.28-1.44-5.66-.15-.63-.28-1.14-.37-1.54A3.76,3.76,0,0,1,295,376.52Z" style="fill:#263238"></path><polygon points="512.09 376.52 502.66 376.52 498.28 376.52 488.85 376.52 486.77 384.24 498.28 384.24 502.66 384.24 514.17 384.24 512.09 376.52" style="fill:#e0e0e0"></polygon><path d="M512.09,376.52a2.53,2.53,0,0,1,.17.49c.12.38.26.88.45,1.49.39,1.38.94,3.3,1.62,5.69l.06.21h-.22c-6,0-15.12.09-25.32.09h-2.42l.08-.33c.74-2.69,1.44-5.29,2.1-7.71l.05-.19h.19l16.71.1,4.84.08,1.27,0a2,2,0,0,1,.42,0l-.47,0-1.3,0-4.82.08-16.65.1.24-.18L487,384.3l-.25-.32h2.08c10.2,0,19.32,0,25.32.09l-.16.21c-.6-2.37-1.09-4.28-1.44-5.66-.15-.63-.27-1.14-.37-1.54A3.76,3.76,0,0,1,512.09,376.52Z" style="fill:#263238"></path></g><g id="freepik--car-3--inject-43"><rect x="517.3" y="345.36" width="26.16" height="38.88" style="fill:#263238"></rect><rect x="661.71" y="345.36" width="26.16" height="38.88" style="fill:#263238"></rect><path d="M533.91,276.62s-9.66,7.46-10.41,10.07a5.63,5.63,0,0,0-1.19,3.53,36.2,36.2,0,0,1-.92,5.64s-4.37,8.39-4.83,12.52,0,42.41,0,42.41h171.3V305.12l-4.75-11.58s-1.19-7.13-2.67-9.21S668,275.72,668,275.72l-7.11-18.8c-2.46-5.61-8.85-12.79-18.11-12.75l-81.41,0c-6.92,0-14.65,6-16.92,10.42Z" style="fill:#e0e0e0"></path><g style="opacity:0.30000000000000004"><polygon points="516.36 322.81 687.86 322.81 687.86 350.79 516.56 350.79 516.36 322.81"></polygon></g><path d="M542.61,275.56H661.68s-1.49-27.28-19.35-27.28-80.5.52-80.5.52-7.81-1.49-14.41,9.62a34,34,0,0,0-4.48,13.93Z" style="fill:#455a64"></path><g style="opacity:0.30000000000000004"><polygon points="569.93 248.74 591.62 275.56 605.27 275.56 582.38 248.74 569.93 248.74" style="fill:#fff"></polygon></g><g style="opacity:0.30000000000000004"><polygon points="561.83 248.8 582.38 275.56 585.79 275.56 565.31 248.74 561.83 248.8" style="fill:#fff"></polygon></g><path d="M661.68,275.56s.17.28.47.85l1.34,2.52c1.17,2.25,2.89,5.54,5.12,9.79v.06c0,4.76,0,10.65.06,17.47,0,3.41,0,7.06,0,10.92a8.09,8.09,0,0,1-7.91,8.06l-58.31,0-44.28,0h-10c-1.62,0-3.18,0-4.78-.06a8.64,8.64,0,0,1-2.31-.6,8,8,0,0,1-3.54-2.93,8.36,8.36,0,0,1-1-2,13.34,13.34,0,0,1-.38-4.32c0-2.81,0-5.5,0-8.08,0-5.14,0-9.79.05-13.88,0-2,0-3.95-.05-5.7a5.25,5.25,0,0,1,.5-2.48c.32-.74.65-1.43,1-2.06,1.38-2.54,2.64-4.39,3.48-5.65l1-1.42.36-.47s-.1.18-.31.5-.54.82-.94,1.45c-.82,1.27-2,3.14-3.39,5.68-.33.64-.66,1.32-1,2.05a5,5,0,0,0-.46,2.39c.06,1.76.07,3.66.09,5.7,0,4.1,0,8.75,0,13.89q0,3.87,0,8.08a12.63,12.63,0,0,0,.37,4.2,8.54,8.54,0,0,0,.94,1.92,8.36,8.36,0,0,0,1.47,1.62,7.59,7.59,0,0,0,4.07,1.71c1.52.08,3.14,0,4.74,0h10l44.28,0,58.3,0a7.66,7.66,0,0,0,7.51-7.61c0-3.86,0-7.51,0-10.92,0-6.82,0-12.71,0-17.47v.06l-5-9.85-1.28-2.55C661.81,275.87,661.68,275.56,661.68,275.56Z" style="fill:#263238"></path><g style="opacity:0.30000000000000004"><polygon points="557.8 313.73 576.02 294.72 629.49 294.72 648.1 313.73 628.79 300.29 576.6 300.29 557.8 313.73"></polygon></g><path d="M684.54,300.29s0,.3,0,.89,0,1.48,0,2.61c0,2.3,0,5.66.06,9.94v.13h-.13l-26.39.07-8.35,0h-1.63c0,.05-.37-.11-.37-.15l-.23-.18c-.56-.5-1.08-1-1.62-1.54l-3.2-3.21c-4.29-4.39-8.78-9.08-13.45-14l.19.08H576l.18-.08c-6.51,6.78-12.63,13.16-18.24,19l-.06.07h-.1l-39.37-.1h-.12v-.12c0-3.72.05-6.58.06-8.54q0-1.43,0-2.19c0-.49,0-.74,0-.74s0,.25,0,.74,0,1.24,0,2.19c0,2,0,4.82.06,8.54l-.12-.12,39.37-.11-.16.07,18.2-19,.07-.07h53.68l.08.08c4.65,4.9,9.13,9.6,13.41,14l3.19,3.22c.53.52,1.06,1,1.59,1.52l.2.16.06.05h0s0,0,0,.07v-.05h10l26.39.08-.13.13c0-4.28.05-7.64.06-9.94q0-1.69,0-2.61C684.51,300.59,684.54,300.29,684.54,300.29Z" style="fill:#263238"></path><rect x="578.08" y="300.29" width="48.45" height="11.6" style="fill:#455a64"></rect><path d="M516,344.16l6.07-7.36,162.35-.36,3.46,10.31v9.68L673.61,365H533.49s-16.74-6.5-17.51-13.79Z" style="fill:#263238"></path><g style="opacity:0.30000000000000004"><path d="M664.48,349.4H542.61a9.11,9.11,0,0,0-9.12,9.11v6.07l6.26.45H672.41v-7.71A7.92,7.92,0,0,0,664.48,349.4Z"></path></g><path d="M546.67,358.87a4.79,4.79,0,1,1-4.79-4.78A4.8,4.8,0,0,1,546.67,358.87Z" style="fill:#455a64"></path><path d="M556.9,358.87a4.79,4.79,0,1,1-4.78-4.78A4.79,4.79,0,0,1,556.9,358.87Z" style="fill:#455a64"></path><path d="M560.86,364.58a48.58,48.58,0,0,1-.26-7.17,48.38,48.38,0,0,1,.26-7.16,98.86,98.86,0,0,1,0,14.33Z" style="fill:#263238"></path><path d="M573.87,364.58a48.58,48.58,0,0,1-.26-7.17,48.38,48.38,0,0,1,.26-7.16,98.86,98.86,0,0,1,0,14.33Z" style="fill:#263238"></path><path d="M586.88,364.58a48.58,48.58,0,0,1-.26-7.17,48.38,48.38,0,0,1,.26-7.16,98.86,98.86,0,0,1,0,14.33Z" style="fill:#263238"></path><path d="M599.88,364.58a98.86,98.86,0,0,1,0-14.33,48.38,48.38,0,0,1,.26,7.16A48.58,48.58,0,0,1,599.88,364.58Z" style="fill:#263238"></path><path d="M612.89,364.58a98.86,98.86,0,0,1,0-14.33,48.38,48.38,0,0,1,.26,7.16A48.58,48.58,0,0,1,612.89,364.58Z" style="fill:#263238"></path><path d="M625.9,364.58a98.86,98.86,0,0,1,0-14.33,48.38,48.38,0,0,1,.26,7.16A48.58,48.58,0,0,1,625.9,364.58Z" style="fill:#263238"></path><path d="M638.91,364.58a98.86,98.86,0,0,1,0-14.33,98.86,98.86,0,0,1,0,14.33Z" style="fill:#263238"></path><path d="M651.92,364.58a98.86,98.86,0,0,1,0-14.33,98.86,98.86,0,0,1,0,14.33Z" style="fill:#263238"></path><path d="M664.85,364.58a98.86,98.86,0,0,1,0-14.33,48.38,48.38,0,0,1,.26,7.16A48.58,48.58,0,0,1,664.85,364.58Z" style="fill:#263238"></path><polygon points="519.52 339.86 543.89 339.94 543.89 336.75 522.05 336.8 519.52 339.86" style="fill:#1DB954"></polygon><polygon points="685.5 339.7 662.45 339.7 662.45 336.44 684.4 336.44 685.5 339.7" style="fill:#1DB954"></polygon><path d="M667.4,275.69c0,.14-28.3.26-63.21.26s-63.21-.12-63.21-.26,28.3-.26,63.21-.26S667.4,275.55,667.4,275.69Z" style="fill:#263238"></path><path d="M687.86,352.71a2,2,0,0,1-.05.36l-.21,1a10.94,10.94,0,0,1-1.81,3.7c-2.11,3-6.84,6-13.36,7.38h0l-69.78.09-64.22-.08a27.61,27.61,0,0,1-10.87-2.15,23.16,23.16,0,0,1-7-4.62,21.34,21.34,0,0,1-3.35-4.1,11.91,11.91,0,0,1-.68-1.2,4.63,4.63,0,0,1-.18-.43l.23.41c.15.27.38.67.72,1.17a22.46,22.46,0,0,0,3.4,4,23.32,23.32,0,0,0,6.95,4.5,27.43,27.43,0,0,0,10.75,2l64.22-.07,69.78.1h0c6.44-1.34,11.15-4.28,13.27-7.17a11.15,11.15,0,0,0,1.86-3.62c.1-.43.19-.77.25-1S687.86,352.71,687.86,352.71Z" style="fill:#455a64"></path><path d="M522.25,290.89s2.65-3.74,17.44-3.74H666s10.74-.56,16.81,4.68l-1.32,6.2h-29l-10.6-6.83H564.53l-11,6.83h-30Z" style="fill:#1DB954"></path><path d="M668.27,289c0,.15-30.65.26-68.45.26s-68.45-.11-68.45-.26,30.64-.26,68.45-.26S668.27,288.9,668.27,289Z" style="fill:#fff"></path><g style="opacity:0.30000000000000004"><path d="M543.25,274a33.88,33.88,0,0,1,4.47-13.93c6.61-11.12,14.41-9.62,14.41-9.62s62.64-.53,80.5-.53c15.21,0,18.55,19.78,19.2,25.65H662s-1.49-27.28-19.35-27.28-80.5.52-80.5.52-7.8-1.49-14.41,9.62a34,34,0,0,0-4.47,13.93l-.33,3.21h.16Z"></path></g><path d="M583.91,250.22h0a1.61,1.61,0,0,0,1.6,1.61h32.62a1.61,1.61,0,0,0,1.61-1.61V250a1.6,1.6,0,0,0-1.62-1.6l-32.62.23A1.6,1.6,0,0,0,583.91,250.22Z" style="fill:#1DB954"></path></g><g id="freepik--car-2--inject-43"><rect x="303.63" y="334.53" width="27.2" height="49.71" style="fill:#263238"></rect><rect x="454.4" y="334.53" width="28.47" height="49.71" style="fill:#263238"></rect><rect x="304.86" y="257.01" width="7.37" height="6.11" style="fill:#263238"></rect><path d="M298.19,267.75h0a7.42,7.42,0,0,1-7.42-7.42v-9.17a7.42,7.42,0,0,1,7.42-7.42h0a7.42,7.42,0,0,1,7.42,7.42v9.17A7.42,7.42,0,0,1,298.19,267.75Z" style="fill:#263238"></path><rect x="470.12" y="257.01" width="7.37" height="6.11" transform="translate(947.61 520.13) rotate(180)" style="fill:#263238"></rect><path d="M484.16,267.75h0a7.42,7.42,0,0,0,7.42-7.42v-9.17a7.42,7.42,0,0,0-7.42-7.42h0a7.42,7.42,0,0,0-7.41,7.42v9.17A7.42,7.42,0,0,0,484.16,267.75Z" style="fill:#263238"></path><path d="M335.59,185.48a11.47,11.47,0,0,0-9.3,5,20.33,20.33,0,0,0-2.77,5.24c-1.29,4.27-8.3,21-13.86,62.91-2,12.88-3.68,27.73-5.12,43.59l-1.71,14.92,178,.74s-5.11-50.61-6.29-59.26-14.95-66.86-14.95-66.86.4-4.55-9-6.21C442.39,184.12,358,185.17,335.59,185.48Z" style="fill:#1DB954"></path><g style="opacity:0.30000000000000004"><polygon points="344.12 285.84 440.62 285.84 477.37 282.94 480.85 316.97 438.85 317.88 302.83 317.14 304.96 297.65 306.46 282.94 344.12 285.84"></polygon></g><path d="M328.33,213.78s-7.16.28-9.91,13.76-4.95,35.23-4.95,35.23H471.15l-8-39.08S462.09,217,453,213.78,332.24,210.06,328.33,213.78Z" style="fill:#455a64"></path><path d="M376.76,211.19h30.07a0,0,0,0,1,0,0v2a4.46,4.46,0,0,1-4.46,4.46H381.22a4.46,4.46,0,0,1-4.46-4.46v-2A0,0,0,0,1,376.76,211.19Z" style="fill:#263238"></path><polygon points="313.47 262.77 314.1 257.01 469.61 257.01 471.15 262.77 313.47 262.77" style="fill:#263238"></polygon><path d="M459.55,258.9h-1a14.66,14.66,0,0,0-29.32,0h-1a15.66,15.66,0,0,1,31.32,0Z" style="fill:#263238"></path><path d="M424.4,257.9s2.17-4,8.48-4.2c5.85-.16,20.71,0,20.71,0s7.25.32,9.35,3.31v1.89H424.4Z" style="fill:#263238"></path><path d="M324,258.05c-.63.8.3-11.76,1.74-17.27a2.87,2.87,0,0,1,2.79-2.15h25.69a2.87,2.87,0,0,1,2.84,2.43c.59,3.79,2.17,11.07,2.52,17Z" style="fill:#263238"></path><rect x="330.28" y="224.89" width="22.64" height="12.07" rx="3.28" style="fill:#263238"></rect><path d="M369.8,258.05c-.63.8.31-11.76,1.74-17.27a2.89,2.89,0,0,1,2.79-2.15H400a2.88,2.88,0,0,1,2.85,2.43c.59,3.79,2.16,11.07,2.52,17Z" style="fill:#263238"></path><rect x="376.08" y="224.89" width="22.64" height="12.07" rx="3.28" style="fill:#263238"></rect><path d="M417.08,258.05c-.63.8.3-11.76,1.74-17.27a2.88,2.88,0,0,1,2.79-2.15H447.3a2.86,2.86,0,0,1,2.84,2.43c.59,3.79,2.17,11.07,2.52,17Z" style="fill:#263238"></path><rect x="423.35" y="224.89" width="22.64" height="12.07" rx="3.28" style="fill:#263238"></rect><path d="M471.15,262.77s0,.21,0,.61,0,1,0,1.81c0,1.61-.1,3.94-.18,6.94-.19,6.05-.45,14.77-.78,25.53v.18H470l-77.56.07-78.94-.07h-.19v-.19c0-10.35.07-18.73.09-24.54,0-2.88,0-5.13,0-6.67,0-.75,0-1.33,0-1.74s0-.59,0-.59,0,.2,0,.59,0,1,0,1.74c0,1.54,0,3.79.05,6.67,0,5.81.05,14.19.08,24.54l-.18-.18,78.94-.08,77.56.07-.19.19c.4-10.76.73-19.48,1-25.53.12-3,.22-5.33.29-6.93,0-.78.06-1.38.08-1.81S471.15,262.77,471.15,262.77Z" style="fill:#263238"></path><path d="M440.62,285.84c-.19.57,0,19.25,0,19.25s31.47,1.71,38.51-6.1l-1.76-16.05Z" style="fill:#e0e0e0"></path><path d="M440.62,285.84a5.21,5.21,0,0,1,.67-.09l2-.19,7.57-.67,26.49-2.19.24,0,0,.23c.55,5,1.15,10.4,1.78,16v.12l-.08.08a10.43,10.43,0,0,1-2.41,1.87,32.12,32.12,0,0,1-9.91,3.11,91.59,91.59,0,0,1-9.66,1.06,154.14,154.14,0,0,1-16.73.08h-.19v-.18c0-5.93,0-10.75,0-14.08,0-1.66,0-3,.07-3.84a5.72,5.72,0,0,1,.12-1.33c0,.69,0,2.15,0,5.17.05,3.37.1,8.17.18,14.07l-.19-.19a166.24,166.24,0,0,0,16.68-.17,92.88,92.88,0,0,0,9.6-1.09,31.69,31.69,0,0,0,9.74-3.05,10,10,0,0,0,2.29-1.77l-.07.2c-.61-5.65-1.2-11.07-1.74-16l.26.21-26.39,2-7.62.53-2,.12-.53,0Z" style="fill:#263238"></path><path d="M343.53,285.84c.19.57,0,19.25,0,19.25S312.06,306.8,305,299l1.76-16.05Z" style="fill:#e0e0e0"></path><path d="M343.53,285.84h-.19l-.53,0-2-.12-7.62-.53-26.39-2L307,283c-.54,5-1.14,10.39-1.75,16l-.07-.2a10,10,0,0,0,2.3,1.77,31.54,31.54,0,0,0,9.73,3.05,93.06,93.06,0,0,0,9.61,1.09,166,166,0,0,0,16.67.17l-.18.19c.07-5.9.13-10.7.17-14.07,0-3,0-4.48,0-5.17a5.72,5.72,0,0,1,.12,1.33c0,.88.06,2.18.08,3.84,0,3.33,0,8.15,0,14.08v.18h-.19a154.14,154.14,0,0,1-16.73-.08,91.59,91.59,0,0,1-9.66-1.06,32,32,0,0,1-9.9-3.11,10.28,10.28,0,0,1-2.42-1.87l-.08-.08V299c.63-5.65,1.23-11.08,1.78-16l0-.23.23,0,26.5,2.19,7.56.67,2,.19A5.21,5.21,0,0,1,343.53,285.84Z" style="fill:#263238"></path><path d="M302.83,317.14s-1.74,23.26,2.26,37.4a10.62,10.62,0,0,0,10.23,7.68H472a8.21,8.21,0,0,0,7.68-5.24c2.49-6.42,5.16-17.26,1.2-40l-46.35.17Z" style="fill:#263238"></path><g style="opacity:0.30000000000000004"><path d="M307.21,324.76c.49.34,2,10.46,9.09,11.95s19,.66,19,.66V324.76Z"></path></g><path d="M329.33,331.05a5.75,5.75,0,1,1-5.74-5.75A5.74,5.74,0,0,1,329.33,331.05Z" style="fill:#fff"></path><g style="opacity:0.30000000000000004"><path d="M470.78,324.9c-.5.33-2,10.46-9.1,12s-19,.66-19,.66V324.9Z"></path></g><path d="M448.65,331.18a5.75,5.75,0,1,0,5.75-5.74A5.75,5.75,0,0,0,448.65,331.18Z" style="fill:#fff"></path><path d="M348.85,324.76v9.88a9.66,9.66,0,0,0,9.66,9.66h67a9.66,9.66,0,0,0,9.66-9.66V325.3Z" style="fill:#455a64"></path><g style="opacity:0.30000000000000004"><path d="M425.55,340.39h-67a9.65,9.65,0,0,1-9.66-9.65v4.07a9.65,9.65,0,0,0,9.66,9.66h67a9.65,9.65,0,0,0,9.66-9.66v-4.07A9.65,9.65,0,0,1,425.55,340.39Z"></path></g><path d="M354.13,297.65s-4.53,1.83-5.28,8.75c-.91,8.45,8.75,10.74,8.75,10.74H431a18.69,18.69,0,0,0,4.19-10.74c.18-6.19-5.65-8.75-5.65-8.75Z" style="fill:#263238"></path><path d="M459.05,193.36c0,.14-30.07.26-67.14.26s-67.15-.12-67.15-.26,30.06-.26,67.15-.26S459.05,193.21,459.05,193.36Z" style="fill:#263238"></path><path d="M480.85,317s.76,3.54,1.51,10a97.27,97.27,0,0,1,.63,11.9,54.16,54.16,0,0,1-2.27,15.6c-.23.7-.46,1.41-.73,2.11a9,9,0,0,1-1,2.07,8.45,8.45,0,0,1-3.64,3,8.06,8.06,0,0,1-2.38.64,23.08,23.08,0,0,1-2.49.07h-5.06l-22,0-50.28,0-50.3,0-21.94,0h-5.07a11.48,11.48,0,0,1-4.84-.89,10.77,10.77,0,0,1-6-6.74,77.53,77.53,0,0,1-2.37-15.6c-.28-4.64-.3-8.65-.26-11.92s.16-5.8.26-7.52c.06-.85.1-1.5.14-2s.07-.66.07-.66,0,.23,0,.67-.05,1.1-.08,1.95c-.07,1.72-.16,4.26-.17,7.52s.05,7.27.36,11.9a77.45,77.45,0,0,0,2.42,15.52,10.43,10.43,0,0,0,5.84,6.48,11,11,0,0,0,4.69.83h5.07l21.94,0,50.3,0,50.28,0,22,0h5.06a21.83,21.83,0,0,0,2.44-.05,8.11,8.11,0,0,0,5.75-3.48,8.6,8.6,0,0,0,1-2c.27-.69.51-1.39.74-2.08a54.22,54.22,0,0,0,2.33-15.49,99.08,99.08,0,0,0-.54-11.88c-.15-1.63-.34-3.07-.5-4.31s-.31-2.3-.44-3.15-.22-1.49-.29-1.94S480.85,317,480.85,317Z" style="fill:#455a64"></path><path d="M480.85,317c0,.14-37.6.26-84,.26s-84-.12-84-.26,37.59-.26,84-.26S480.85,316.82,480.85,317Z" style="fill:#455a64"></path></g><g id="freepik--car-1--inject-43"><path d="M110.61,285.2H96.28a4,4,0,0,1-4-4h0a6.08,6.08,0,0,1,6.08-6.08h8.84a3.36,3.36,0,0,1,3.36,3.37Z" style="fill:#1DB954"></path><path d="M241.68,285.2H256a4,4,0,0,0,4-4h0a6.08,6.08,0,0,0-6.08-6.08h-8.84a3.37,3.37,0,0,0-3.37,3.37Z" style="fill:#1DB954"></path><rect x="93.43" y="345.27" width="28.68" height="38.42" style="fill:#263238"></rect><rect x="231.97" y="345.27" width="28.68" height="38.42" style="fill:#263238"></rect><path d="M96.35,294.21l8.34-6.7,13.19-36.22c2-4.51,5.76-10.31,14.49-11.19l90.89.8a12.37,12.37,0,0,1,11.5,8.12l11.81,32.34,3.24,7.35,7.7,5.39a11,11,0,0,1,4.71,9V355s-.38,9.55-10.3,9.55H103.45s-9.54.38-11.07-10.69c-1.21-8.78-.5-39.19-.15-51.38A11,11,0,0,1,96.35,294.21Z" style="fill:#1DB954"></path><g style="opacity:0.30000000000000004"><path d="M91.52,331.31c1.14.28,170.7,0,170.7,0v23.12c0,5.63-4,10.14-9.66,10.14H104.41a12.26,12.26,0,0,1-12.58-12.71Z"></path></g><path d="M97.39,298l32.9,4v19.29s-36.41-1-38.59-5.86l.49-13A4.65,4.65,0,0,1,97.39,298Z" style="fill:#e0e0e0"></path><path d="M97.39,298a7.53,7.53,0,0,0-1.42.11,4.61,4.61,0,0,0-3.13,2.36,5.63,5.63,0,0,0-.54,2.84c0,1.08-.07,2.26-.11,3.52-.09,2.54-.18,5.41-.29,8.57v-.08a5.5,5.5,0,0,0,3,1.81,34.71,34.71,0,0,0,3.81,1c2.66.53,5.51.95,8.5,1.29,6,.68,12.47,1.12,19.26,1.43l3.87.15-.27.26c0-6.86,0-13.37,0-19.29l.21.24-23.72-3-6.75-.88L98,298.11a4.48,4.48,0,0,1-.62-.11,4.18,4.18,0,0,1,.63,0l1.79.17,6.76.75,23.75,2.78.21,0V302c0,5.92,0,12.43,0,19.29v.27h-.27l-3.87-.15c-6.8-.31-13.32-.76-19.3-1.47-3-.35-5.85-.77-8.53-1.33a34,34,0,0,1-3.86-1,12.74,12.74,0,0,1-1.77-.76,3.38,3.38,0,0,1-1.43-1.3l0,0v-.05c.14-3.16.26-6,.36-8.57.06-1.26.11-2.44.16-3.52a5.94,5.94,0,0,1,.62-2.93A4.73,4.73,0,0,1,96,298,3.61,3.61,0,0,1,97.39,298Z" style="fill:#263238"></path><path d="M256.53,298l-32.9,4v19.29s35.7-1.26,37.88-6.1l.22-12.72A4.64,4.64,0,0,0,256.53,298Z" style="fill:#e0e0e0"></path><path d="M256.53,298a3.57,3.57,0,0,1,1.43,0,4.69,4.69,0,0,1,3.29,2.32,5,5,0,0,1,.61,2.89c0,1.07,0,2.24,0,3.49,0,2.5-.07,5.35-.11,8.47v0l0,0a3.43,3.43,0,0,1-1.4,1.3,12.39,12.39,0,0,1-1.75.77,32.08,32.08,0,0,1-3.83,1.07c-2.66.57-5.5,1-8.47,1.39-5.94.74-12.42,1.25-19.18,1.6l-3.42.15h-.27v-.27c0-6.85,0-13.36,0-19.29v-.21l.21,0L247.34,299l6.77-.75,1.8-.17a4.13,4.13,0,0,1,.62,0,4.49,4.49,0,0,1-.61.11l-1.79.26-6.75.88-23.72,3,.21-.24c0,5.93,0,12.44,0,19.29l-.27-.26,3.42-.15c6.75-.35,13.21-.84,19.14-1.56,3-.36,5.79-.8,8.43-1.35a34.14,34.14,0,0,0,3.78-1,5.54,5.54,0,0,0,2.94-1.83l0,.08c.07-3.13.13-6,.19-8.47,0-1.25.06-2.41.08-3.49a4.77,4.77,0,0,0-.53-2.78,4.64,4.64,0,0,0-3.11-2.32A9.21,9.21,0,0,0,256.53,298Z" style="fill:#263238"></path><path d="M142.93,302a10.38,10.38,0,0,0-10.31,8.74,24.88,24.88,0,0,0-.21,5c.58,11.53,2.88,25.66,8.36,29.11h37.76V302Z" style="fill:#263238"></path><path d="M209.82,302a10.37,10.37,0,0,1,10.31,8.74,24.88,24.88,0,0,1,.21,5c-.57,11.53-2.88,25.66-8.36,29.11H174.22V302Z" style="fill:#263238"></path><path d="M219.33,317.19H133.79a2.3,2.3,0,0,1-2.3-2.3h0a2.3,2.3,0,0,1,2.3-2.31h85.54a2.3,2.3,0,0,1,2.3,2.31h0A2.3,2.3,0,0,1,219.33,317.19Z" style="fill:#455a64"></path><path d="M214.85,308.09h-78a2.31,2.31,0,0,1-2.31-2.31h0a2.31,2.31,0,0,1,2.31-2.31h78a2.31,2.31,0,0,1,2.3,2.31h0A2.31,2.31,0,0,1,214.85,308.09Z" style="fill:#455a64"></path><rect x="132.37" y="322.85" width="89.26" height="4.61" rx="2.31" style="fill:#455a64"></rect><path d="M216.38,337.72H136.59a2.3,2.3,0,0,1-2.3-2.3h0a2.3,2.3,0,0,1,2.3-2.31h79.79a2.3,2.3,0,0,1,2.3,2.31h0A2.3,2.3,0,0,1,216.38,337.72Z" style="fill:#455a64"></path><path d="M111,281.94s9.53-31.84,14.08-35.88H229.44s9,19.71,12.24,35.88Z" style="fill:#455a64"></path><path d="M137.63,350.47v2.77a6.1,6.1,0,0,0,6.1,6.1h66.61a6.1,6.1,0,0,0,6.1-6.1v-2.77Z" style="fill:#263238"></path><path d="M229.8,342.77V354.9s24.38,3.44,27.95-12.13Z" style="fill:#263238"></path><path d="M127.55,342.77V354.9s-24.38,3.44-27.94-12.13Z" style="fill:#263238"></path><path d="M249.81,288.71a1.82,1.82,0,0,1-.09-.19l-.25-.59c-.21-.54-.52-1.31-.91-2.29-.8-2-1.94-5-3.39-8.69-2.89-7.49-7-18.1-11.81-30.65l.22.15-33.77,0-56.05-.15-17-.11-4.62-.06-1.2,0-.41,0,.41,0,1.2,0,4.62,0,17-.06h56.05l33.77.07h.16l.06.15,11.63,30.72c1.4,3.73,2.5,6.69,3.27,8.74.36,1,.64,1.76.85,2.32l.2.6C249.8,288.64,249.82,288.71,249.81,288.71Z" style="fill:#263238"></path><path d="M241.68,281.94c0,.14-29.25.28-65.34.3S111,282.17,111,282s29.25-.28,65.34-.3S241.68,281.8,241.68,281.94Z" style="fill:#263238"></path><path d="M240.78,281.75c.09-.11,4.31,2.91,9.42,6.75s9.19,7.05,9.1,7.17-4.3-2.91-9.41-6.75S240.7,281.87,240.78,281.75Z" style="fill:#263238"></path><path d="M111,281.94c.09.11-3.45,3.27-7.91,7.06s-8.15,6.78-8.24,6.67,3.45-3.27,7.9-7.06A104,104,0,0,1,111,281.94Z" style="fill:#263238"></path><path d="M112.21,266.87c.13,0-1.44,4.71-3.52,10.41s-3.87,10.28-4,10.23,1.44-4.71,3.51-10.41S112.07,266.82,112.21,266.87Z" style="fill:#263238"></path><path d="M227.29,301.53a1,1,0,0,1-.25,0l-.73.05-2.82.16c-2.46.13-6,.28-10.39.4-8.78.27-20.91.41-34.3.37s-25.53-.21-34.3-.31l-10.4-.15-2.82-.06-.74,0-.25,0,.25,0,.74,0,2.82,0,10.4,0,34.3.16c13.39,0,25.51,0,34.29-.21l10.39-.24,2.82-.06h1Z" style="fill:#263238"></path><path d="M161.62,246.06h28a0,0,0,0,1,0,0v1.59a4.46,4.46,0,0,1-4.46,4.46H166.08a4.46,4.46,0,0,1-4.46-4.46v-1.59A0,0,0,0,1,161.62,246.06Z" style="fill:#263238"></path><path d="M229.88,281.38h-1a13.62,13.62,0,0,0-27.23,0h-1a14.62,14.62,0,0,1,29.23,0Z" style="fill:#263238"></path><path d="M196.23,280.82s2-3.76,7.9-3.91c5.45-.15,19.28,0,19.28,0s6.75.3,8.7,3.08v1.76H196.23Z" style="fill:#263238"></path><path d="M126.63,282.31c-.63.66.29-9.68,1.71-14.22a2.78,2.78,0,0,1,2.74-1.78h25.26a2.72,2.72,0,0,1,2.8,2c.58,3.12,2.13,9.12,2.48,14Z" style="fill:#263238"></path><rect x="132.89" y="255" width="22.27" height="9.94" rx="3.28" style="fill:#263238"></rect><path d="M187.57,281.94c-.62.66.5-10.2,1.91-14.74a2.8,2.8,0,0,1,2.74-1.77h25.26a2.72,2.72,0,0,1,2.8,2c.58,3.13,2.13,9.61,2.48,14.51Z" style="fill:#263238"></path><rect x="194.03" y="255" width="22.27" height="9.94" rx="3.28" style="fill:#263238"></rect></g><g id="freepik--Sign--inject-43"><rect x="49.75" y="271.55" width="8.51" height="112.68" style="fill:#e0e0e0"></rect><path d="M58.26,384.24s0-.21,0-.59,0-1,0-1.7c0-1.51,0-3.7,0-6.52,0-5.66,0-13.85-.08-24,0-20.28-.07-48.41-.11-79.89l.26.26H49.75l.26-.26c0,51.41-.07,95.33-.17,112.69l-.09-.1,6.32.06,1.63,0,.56,0-.53,0-1.6,0-6.38.05h-.1v-.09c-.09-17.36-.16-61.28-.16-112.69v-.26h9v.26c0,31.55-.08,59.75-.11,80.08,0,10.12-.06,18.28-.08,23.93,0,2.79,0,5,0,6.46,0,.72,0,1.27,0,1.66S58.26,384.24,58.26,384.24Z" style="fill:#263238"></path><rect x="22.58" y="211.16" width="65.6" height="65.6" rx="9.67" style="fill:#455a64"></rect><path d="M78.43,274.58H32.32a7.52,7.52,0,0,1-7.5-7.51V221a7.52,7.52,0,0,1,7.5-7.5H78.43a7.51,7.51,0,0,1,7.5,7.5v46.11A7.51,7.51,0,0,1,78.43,274.58ZM32.32,214.46a6.51,6.51,0,0,0-6.5,6.5v46.11a6.51,6.51,0,0,0,6.5,6.51H78.43a6.51,6.51,0,0,0,6.5-6.51V221a6.51,6.51,0,0,0-6.5-6.5Z" style="fill:#fff"></path><path d="M65.05,228.66a11,11,0,0,1,4.86,4.05,11.08,11.08,0,0,1-4.86,16.37,17.91,17.91,0,0,1-7.43,1.42H52.13v8.24H43.22v-31.5h14.4A17.91,17.91,0,0,1,65.05,228.66Zm-3.83,13.63a4.23,4.23,0,0,0,1.4-3.4,4.3,4.3,0,0,0-1.4-3.42,6.14,6.14,0,0,0-4.14-1.21H52.13v9.22h4.95A6.2,6.2,0,0,0,61.22,242.29Z" style="fill:#fff"></path></g></svg>