<svg xmlns="http://www.w3.org/2000/svg" viewBox="0 0 500 500"><g id="freepik--background-complete--inject-62"><rect y="382.4" width="500" height="0.25" style="fill:#ebebeb"></rect><rect x="416.78" y="398.49" width="33.12" height="0.25" style="fill:#ebebeb"></rect><rect x="322.53" y="401.21" width="8.69" height="0.25" style="fill:#ebebeb"></rect><rect x="396.59" y="389.21" width="19.19" height="0.25" style="fill:#ebebeb"></rect><rect x="52.46" y="390.89" width="43.19" height="0.25" style="fill:#ebebeb"></rect><rect x="104.56" y="390.89" width="6.33" height="0.25" style="fill:#ebebeb"></rect><rect x="131.47" y="395.11" width="93.68" height="0.25" style="fill:#ebebeb"></rect><path d="M237,337.8H43.91a5.71,5.71,0,0,1-5.7-5.71V60.66A5.71,5.71,0,0,1,43.91,55H237a5.71,5.71,0,0,1,5.71,5.71V332.09A5.71,5.71,0,0,1,237,337.8ZM43.91,55.2a5.46,5.46,0,0,0-5.45,5.46V332.09a5.46,5.46,0,0,0,5.45,5.46H237a5.47,5.47,0,0,0,5.46-5.46V60.66A5.47,5.47,0,0,0,237,55.2Z" style="fill:#ebebeb"></path><path d="M453.31,337.8H260.21a5.72,5.72,0,0,1-5.71-5.71V60.66A5.72,5.72,0,0,1,260.21,55h193.1A5.71,5.71,0,0,1,459,60.66V332.09A5.71,5.71,0,0,1,453.31,337.8ZM260.21,55.2a5.47,5.47,0,0,0-5.46,5.46V332.09a5.47,5.47,0,0,0,5.46,5.46h193.1a5.47,5.47,0,0,0,5.46-5.46V60.66a5.47,5.47,0,0,0-5.46-5.46Z" style="fill:#ebebeb"></path><polygon points="54.38 384.77 54.38 335.46 77.14 335.46 77.14 289.73 80.35 289.73 80.35 315.94 89.1 315.94 89.1 308.69 104.86 308.69 104.86 283.59 107.78 283.59 107.78 252.92 110.11 252.92 110.11 283.04 115.66 283.04 115.66 327.65 126.16 327.65 126.16 283.04 145.13 283.04 145.13 320.77 165.04 320.77 165.04 275.04 168.25 275.04 168.25 301.25 177 301.25 177 294 192.76 294 192.76 268.9 195.68 268.9 195.68 238.22 198.01 238.22 198.01 268.34 203.56 268.34 203.56 312.96 214.06 312.96 214.06 268.34 233.03 268.34 233.03 311.5 245.82 311.5 245.82 286.4 248.74 286.4 248.74 255.73 251.07 255.73 251.07 285.85 256.62 285.85 256.62 330.46 267.12 330.46 267.12 285.85 286.09 285.85 286.09 330.46 295.42 330.46 295.42 335.46 311.78 335.46 311.78 289.73 314.99 289.73 314.99 315.94 323.75 315.94 323.75 308.69 339.5 308.69 339.5 283.59 342.42 283.59 342.42 252.92 344.75 252.92 344.75 283.04 349.84 283.04 349.84 280.52 368.81 280.52 368.81 283.04 379.31 283.04 379.31 280.52 384.86 280.52 384.86 250.41 387.19 250.41 387.19 281.08 390.11 281.08 390.11 306.18 405.87 306.18 405.87 313.43 414.62 313.43 414.62 287.22 417.83 287.22 417.83 332.95 440.59 332.95 440.59 384.77 54.38 384.77" style="fill:#e0e0e0"></polygon><circle cx="348.33" cy="129.64" r="27.79" transform="translate(95.26 401.84) rotate(-67.5)" style="fill:#fafafa"></circle><path d="M362.74,129.33A4.84,4.84,0,0,1,369,124.7,10.21,10.21,0,0,1,379.08,113a10.71,10.71,0,0,1,1.89.17,8.94,8.94,0,0,1,16.57,4.52h.15a8.24,8.24,0,1,1,0,16.48H367.44A4.82,4.82,0,0,1,362.74,129.33Z" style="fill:#f0f0f0"></path><path d="M54.15,205.31a4.8,4.8,0,0,1,6.21-4.62,10.46,10.46,0,0,1-.1-1.49A10.23,10.23,0,0,1,70.49,189a10.6,10.6,0,0,1,1.88.18A8.94,8.94,0,0,1,89,193.67h.15a8.24,8.24,0,1,1,0,16.48H58.84A4.84,4.84,0,0,1,54.15,205.31Z" style="fill:#f0f0f0"></path><path d="M216,147.6a7.65,7.65,0,0,0-9.84-7.32,16.56,16.56,0,0,0,.17-2.35A16.16,16.16,0,0,0,187.18,122,14.14,14.14,0,0,0,161,129.18h-.24a13,13,0,1,0,0,26.07h47.87A7.63,7.63,0,0,0,216,147.6Z" style="fill:#f0f0f0"></path><path d="M353.24,213.21a9.19,9.19,0,0,0-11.84-8.81,18.82,18.82,0,0,0,.21-2.82,19.48,19.48,0,0,0-19.48-19.48,20.11,20.11,0,0,0-3.58.33A17,17,0,0,0,287,191h-.28a15.69,15.69,0,1,0,0,31.37h57.6A9.19,9.19,0,0,0,353.24,213.21Z" style="fill:#f0f0f0"></path><path d="M302.13,143.8a3,3,0,0,1,3.87-2.88,7,7,0,0,1-.07-.92,6.36,6.36,0,0,1,6.36-6.36,6.45,6.45,0,0,1,1.17.11,5.56,5.56,0,0,1,10.31,2.81h.09a5.12,5.12,0,1,1,0,10.24H305.05A3,3,0,0,1,302.13,143.8Z" style="fill:#f0f0f0"></path><path d="M100.82,111.4A3,3,0,0,0,97,108.52a7,7,0,0,0,.07-.92,6.36,6.36,0,0,0-6.36-6.36,6.56,6.56,0,0,0-1.18.11,5.55,5.55,0,0,0-10.3,2.81H79.1a5.13,5.13,0,1,0,0,10.25H97.9A3,3,0,0,0,100.82,111.4Z" style="fill:#f0f0f0"></path></g><g id="freepik--Shadow--inject-62"><ellipse id="freepik--path--inject-62" cx="250" cy="416.24" rx="193.89" ry="11.32" style="fill:#f5f5f5"></ellipse></g><g id="freepik--Sign--inject-62"><rect x="124.15" y="125.99" width="5.4" height="266.91" style="fill:#2e353a"></rect><rect x="102.82" y="115.42" width="48.04" height="48.04" rx="4.78" style="fill:#1DB954"></rect><path d="M146.08,161.46H107.61a2.78,2.78,0,0,1-2.78-2.78V120.2a2.78,2.78,0,0,1,2.78-2.78h38.47a2.79,2.79,0,0,1,2.79,2.78v38.48A2.79,2.79,0,0,1,146.08,161.46Zm-38.47-42a.78.78,0,0,0-.78.78v38.48a.78.78,0,0,0,.78.78h38.47a.79.79,0,0,0,.79-.78V120.2a.79.79,0,0,0-.79-.78Z" style="fill:#fff"></path><path d="M127.15,128c5,0,7.85,2.47,7.85,6.81,0,4.57-2.86,7.21-7.85,7.21h-3.89v5.6h-4.43V128Zm-3.89,10.32h3.67c2.47,0,3.87-1.13,3.87-3.37s-1.4-3.28-3.87-3.28h-3.67Z" style="fill:#fff"></path><polygon points="129.54 392.91 124.15 392.91 124.15 208 129.54 215 129.54 392.91" style="fill:#fff;isolation:isolate;opacity:0.4"></polygon><rect x="104.99" y="174.74" width="42.87" height="26.91" rx="2.43" style="fill:#1DB954"></rect><rect x="104.99" y="174.74" width="42.87" height="26.91" rx="2.43" style="fill:#fff;isolation:isolate;opacity:0.4"></rect><path d="M121.63,191.75a3.56,3.56,0,1,1-3.55-3.56A3.56,3.56,0,0,1,121.63,191.75Zm12.17-3.56a3.56,3.56,0,1,0,3.56,3.56A3.56,3.56,0,0,0,133.8,188.19Zm-17.64,0s3-1.12,4.65.66A5.61,5.61,0,0,1,122,193.3h7.22l.4-.79c-.7-4.75,5.34-5.35,5.34-5.35l-1.16-1.28,1.16-1.19-.7-1.38-6.23.59-.29,1.48,1.08,1.3-2,5.07h-3.27l-2-4.68.86-1.69-.86-1,1.75-1.13,2.08-.4v-.69l-2.57.2s0-.79-.69-.69a12.37,12.37,0,0,0-2.38,1l.7,1a9.7,9.7,0,0,0-3.07,3.47C115.77,187.07,116.16,188.19,116.16,188.19Z" style="fill:#fff"></path></g><g id="freepik--Street--inject-62"><path d="M428.54,387.84v12H90.23v-12a3.57,3.57,0,0,1,3.54-3.77H425A3.57,3.57,0,0,1,428.54,387.84Z" style="fill:#263238"></path><rect x="109.51" y="384.07" width="21.04" height="15.78" style="fill:#1DB954"></rect><rect x="149.83" y="384.07" width="20.16" height="15.78" style="fill:#1DB954"></rect><rect x="189.27" y="384.07" width="21.03" height="15.78" style="fill:#1DB954"></rect><rect x="229.59" y="384.07" width="20.16" height="15.78" style="fill:#1DB954"></rect><rect x="269.03" y="384.07" width="20.16" height="15.78" style="fill:#1DB954"></rect><rect x="308.47" y="384.07" width="21.03" height="15.78" style="fill:#1DB954"></rect><rect x="348.78" y="384.07" width="20.16" height="15.78" style="fill:#1DB954"></rect><rect x="388.22" y="384.07" width="21.03" height="15.78" style="fill:#1DB954"></rect><rect x="109.51" y="384.07" width="21.04" height="15.78" style="fill:#fff;opacity:0.6"></rect><rect x="149.83" y="384.07" width="20.16" height="15.78" style="fill:#fff;opacity:0.6"></rect><rect x="189.27" y="384.07" width="21.03" height="15.78" style="fill:#fff;opacity:0.6"></rect><rect x="229.59" y="384.07" width="20.16" height="15.78" style="fill:#fff;opacity:0.6"></rect><rect x="269.03" y="384.07" width="20.16" height="15.78" style="fill:#fff;opacity:0.6"></rect><rect x="308.47" y="384.07" width="21.03" height="15.78" style="fill:#fff;opacity:0.6"></rect><rect x="348.78" y="384.07" width="20.16" height="15.78" style="fill:#fff;opacity:0.6"></rect><rect x="388.22" y="384.07" width="21.03" height="15.78" style="fill:#fff;opacity:0.6"></rect><path d="M428.54,387.84v12H90.23v-12a3.57,3.57,0,0,1,3.54-3.77H425A3.57,3.57,0,0,1,428.54,387.84Z" style="fill:#fff;isolation:isolate;opacity:0.2"></path></g></svg>