<?xml version="1.0" encoding="iso-8859-1"?>
<!-- Uploaded to: SVG Repo, www.svgrepo.com, Generator: SVG Repo Mixer Tools -->
<svg fill="#000000" height="800px" width="800px" version="1.1" id="Layer_1" xmlns="http://www.w3.org/2000/svg" xmlns:xlink="http://www.w3.org/1999/xlink" 
	 viewBox="0 0 512 512" xml:space="preserve">
<g>
	<g>
		<path d="M55.467,315.733C24.892,315.733,0,340.617,0,371.2c0,30.583,24.892,55.467,55.467,55.467s55.467-24.883,55.467-55.467
			C110.933,340.617,86.05,315.733,55.467,315.733z M55.467,409.6c-21.171,0-38.4-17.229-38.4-38.4s17.229-38.4,38.4-38.4
			s38.4,17.229,38.4,38.4S76.646,409.6,55.467,409.6z"/>
	</g>
</g>
<g>
	<g>
		<path d="M503.467,256h-8.533v-93.867c0-38.05-27.819-69.734-64.188-75.768c-1.212-0.657-2.603-1.033-4.079-1.033H153.6
			c-0.29,0-0.572,0.009-0.862,0.043c-54.443,5.513-88.055,98.987-99.388,136.491H42.667c-4.71,0-8.533,3.823-8.533,8.533v34.133
			c0,4.71,3.823,8.533,8.533,8.533h25.6v8.96c-2.807-0.282-5.649-0.427-8.533-0.427c-21.035,0-41.242,7.714-56.892,21.734
			c-3.516,3.14-3.806,8.533-0.666,12.049c3.149,3.516,8.533,3.814,12.049,0.666c12.518-11.204,28.689-17.382,45.508-17.382
			c37.641,0,68.267,30.626,68.267,68.267c0,4.71,3.823,8.533,8.533,8.533h222.549c4.164,28.902,29.022,51.2,59.051,51.2
			c30.029,0,54.886-22.298,59.051-51.2h9.216c4.71,0,8.533-3.823,8.533-8.533V307.2h8.533c4.71,0,8.533-3.823,8.533-8.533v-34.133
			C512,259.823,508.186,256,503.467,256z M154.061,102.4h264.073c32.939,0,59.733,26.795,59.733,59.733v85.333H358.4V128
			c0-4.71-3.823-8.533-8.533-8.533H147.652l-13.406-8.943C140.629,106.044,147.243,103.168,154.061,102.4z M341.333,136.533v115.934
			L309.7,284.1c-1.596,1.596-2.5,3.772-2.5,6.033v34.133h-59.733V136.533H341.333z M230.4,136.533v85.333H128.316l23.27-85.333
			H230.4z M121.122,122.291l14.097,9.404l-23.287,85.393l-33.434-16.717C89.762,169.694,104.346,140.706,121.122,122.291z
			 M418.133,409.6c-20.599,0-37.837-14.686-41.805-34.133h83.61C455.979,394.914,438.741,409.6,418.133,409.6z M494.933,290.133
			H486.4c-4.71,0-8.533,3.823-8.533,8.533V358.4H144.64c-3.43-34.372-27.332-62.805-59.307-72.883v-20.983
			c0-4.71-3.823-8.533-8.533-8.533H51.2v-17.067h8.533c3.806,0,7.159-2.526,8.201-6.187c1.527-5.342,3.2-10.718,4.949-16.094
			l42.769,21.385c1.186,0.589,2.492,0.896,3.814,0.896H230.4V332.8c0,4.71,3.823,8.533,8.533,8.533h76.8
			c4.71,0,8.533-3.823,8.533-8.533v-39.134l29.141-29.133h124.459c0,4.71,3.823,8.533,8.533,8.533h8.533V290.133z"/>
	</g>
</g>
</svg>